<?xml version="1.0" standalone="no"?>
<!DOCTYPE svg PUBLIC "-//W3C//DTD SVG 20010904//EN"
 "http://www.w3.org/TR/2001/REC-SVG-20010904/DTD/svg10.dtd">
<svg version="1.0" xmlns="http://www.w3.org/2000/svg"
 width="500.000000pt" height="500.000000pt" viewBox="0 0 500.000000 500.000000"
 preserveAspectRatio="xMidYMid meet">

<g transform="translate(0.000000,500.000000) scale(0.100000,-0.100000)"
fill="#000000" stroke="none">
<path d="M2400 4874 c-178 -27 -320 -101 -360 -187 -32 -68 -326 -1273 -664
-2727 -297 -1275 -307 -1320 -296 -1340 21 -39 57 -53 133 -53 156 0 289 58
459 201 303 255 389 273 646 136 102 -54 154 -89 320 -212 81 -60 85 -62 146
-62 168 0 390 114 411 211 7 31 4 37 -36 72 -61 54 -335 235 -449 295 -110 59
-241 104 -353 122 -153 25 -375 -8 -531 -79 -38 -17 -71 -30 -73 -28 -1 2 69
314 156 693 88 379 245 1060 350 1514 104 454 217 942 251 1085 33 142 60 273
58 289 -2 17 -13 36 -28 47 -26 18 -96 29 -140 23z"/>
<path d="M3395 4446 c-64 -30 -121 -79 -111 -94 12 -20 46 -13 85 17 45 35 81
54 88 47 3 -3 0 -25 -6 -49 l-13 -44 -71 -17 c-133 -31 -187 -72 -187 -140 0
-43 39 -60 120 -53 l69 6 -9 -25 c-16 -40 -12 -45 27 -42 35 3 38 6 44 38 3
19 10 44 16 55 19 36 83 250 83 278 0 20 -7 30 -26 37 -37 15 -54 12 -109 -14z
m20 -193 c-4 -10 -11 -32 -16 -49 -8 -28 -15 -33 -60 -41 -60 -12 -89 -7 -89
16 0 30 25 52 80 72 72 24 94 25 85 2z"/>
<path d="M3245 3690 c-4 -6 -35 -7 -79 -4 -71 7 -124 -6 -111 -26 3 -5 36 -12
73 -15 37 -4 70 -9 74 -11 3 -2 -16 -52 -44 -110 -62 -133 -138 -326 -132
-336 9 -14 59 -9 82 8 16 11 20 19 13 28 -11 13 58 195 123 324 l37 74 42 -8
c125 -24 173 7 57 36 -45 11 -66 21 -68 33 -4 19 -56 24 -67 7z"/>
<path d="M2922 2775 c-35 -19 -46 -32 -34 -39 6 -4 -17 -60 -57 -139 -38 -72
-77 -153 -87 -180 -11 -26 -27 -50 -36 -53 -21 -6 -22 -17 -7 -45 8 -17 17
-19 57 -14 33 4 81 -3 162 -23 63 -15 123 -26 133 -24 28 6 19 30 -15 41 -61
19 -196 51 -217 51 -28 0 -27 13 11 98 l33 73 94 -3 c66 -2 95 1 98 9 5 15
-58 33 -120 33 -27 0 -47 4 -45 9 2 5 21 44 43 86 l40 77 70 -6 c39 -3 89 -12
112 -20 45 -16 83 -11 83 9 0 19 -85 45 -168 52 -40 3 -75 10 -78 14 -7 13
-45 9 -72 -6z"/>
<path d="M2664 1703 c-54 -121 -62 -140 -93 -218 -17 -44 -31 -83 -31 -87 0
-13 57 -9 67 5 5 6 25 49 43 95 30 76 38 88 100 138 69 55 90 65 90 40 0 -7
-27 -86 -61 -175 -33 -88 -58 -165 -54 -171 9 -15 52 -12 69 6 9 8 16 25 16
37 0 12 18 69 41 127 71 183 73 189 61 216 -18 39 -55 41 -124 5 -47 -24 -58
-27 -53 -13 15 35 10 47 -18 50 -25 3 -30 -2 -53 -55z"/>
</g>
</svg>
